# xmcd
#
# Track frame offsets: 
#        180
#        31961
#        63967
#        95985
#        133110
#        158576
#        194537
#        218185
#
# Disc length: 3237 seconds
#
# Revision: 3
# Processed by: cddbd v1.5.2PL0 Copyright (c) Steve Scherf et al.
# Submitted via: ExactAudioCopy v0.99pb4
#
DISCID=720ca308
DTITLE=Andreas Prittwitz - -MÚSICA RELAX- SOL NACIENTE
DYEAR=1999
DGENRE=Relax
TTITLE0=Meditando al anochecer
TTITLE1=El templo perdido
TTITLE2=La bailarina
TTITLE3=La fiesta de los pescadores
TTITLE4=Samurai
TTITLE5=Amanecer
TTITLE6=El jardín de los placeres
TTITLE7=Primavera en el valle
EXTD=Mandolina\nANTONIO GARCIA DE DIEGO\n\nVoces\nARABIA MARTÍN\n\nSal
EXTD=terio chino\nWANG\n\nFlautas, clarinete y saxo soprano\nANDREAS P
EXTD=RITTWITZ\n\nTeclados y programación\nANDREAS PRITTWITZ, ANTONIO G
EXTD=ARCIA DE DIEGO en "Amanecer"
EXTT0=
EXTT1=
EXTT2=
EXTT3=
EXTT4=
EXTT5=
EXTT6=
EXTT7=
PLAYORDER=
